<?xml version="1.0" standalone="no"?>
<!DOCTYPE svg PUBLIC "-//W3C//DTD SVG 20010904//EN"
 "http://www.w3.org/TR/2001/REC-SVG-20010904/DTD/svg10.dtd">
<svg version="1.0" xmlns="http://www.w3.org/2000/svg"
 width="50.000000px" height="50.000000px" viewBox="0 -4 100.000000 100.000000"
 preserveAspectRatio="xMidYMid meet">

<g transform="translate(0.000000,100.000000) scale(0.100000,-0.100000)"
fill="#F7057B" stroke="none">
<path d="M410 979 c-82 -14 -174 -63 -240 -129 -96 -96 -137 -210 -127 -353
12 -181 151 -345 331 -393 65 -18 177 -18 242 0 125 33 231 122 292 245 36 72
37 79 37 180 0 86 -4 117 -23 167 -76 199 -295 320 -512 283z m360 -277 l0
-158 -121 -68 -121 -67 -77 73 c-42 40 -79 78 -83 83 -4 6 -8 -39 -8 -100 l0
-110 -70 -75 -69 -75 0 240 0 240 52 52 52 53 150 -141 150 -141 5 110 5 109
60 66 c33 36 63 66 68 66 4 1 7 -70 7 -157z m-10 -359 l0 -137 -88 85 c-48 46
-86 86 -84 89 3 4 158 95 170 99 1 1 2 -61 2 -136z"/>
</g>
</svg>
